<svg id="visual" viewBox="0 0 960 540" width="960" height="540" xmlns="http://www.w3.org/2000/svg" xmlns:xlink="http://www.w3.org/1999/xlink" version="1.1"><path d="M0 152L17.8 149.3C35.7 146.7 71.3 141.3 106.8 138.7C142.3 136 177.7 136 213.2 147.7C248.7 159.3 284.3 182.7 320 196.2C355.7 209.7 391.3 213.3 426.8 203.5C462.3 193.7 497.7 170.3 533.2 159.5C568.7 148.7 604.3 150.3 640 154.8C675.7 159.3 711.3 166.7 746.8 164C782.3 161.3 817.7 148.7 853.2 161.2C888.7 173.7 924.3 211.3 942.2 230.2L960 249L960 0L942.2 0C924.3 0 888.7 0 853.2 0C817.7 0 782.3 0 746.8 0C711.3 0 675.7 0 640 0C604.3 0 568.7 0 533.2 0C497.7 0 462.3 0 426.8 0C391.3 0 355.7 0 320 0C284.3 0 248.7 0 213.2 0C177.7 0 142.3 0 106.8 0C71.3 0 35.7 0 17.8 0L0 0Z" fill="#707068"></path><path d="M0 374L17.8 367.7C35.7 361.3 71.3 348.7 106.8 338.7C142.3 328.7 177.7 321.3 213.2 321.3C248.7 321.3 284.3 328.7 320 338.7C355.7 348.7 391.3 361.3 426.8 365.8C462.3 370.3 497.7 366.7 533.2 362.2C568.7 357.7 604.3 352.3 640 352.3C675.7 352.3 711.3 357.7 746.8 360.3C782.3 363 817.7 363 853.2 365.7C888.7 368.3 924.3 373.7 942.2 376.3L960 379L960 247L942.2 228.2C924.3 209.3 888.7 171.7 853.2 159.2C817.7 146.7 782.3 159.3 746.8 162C711.3 164.7 675.7 157.3 640 152.8C604.3 148.3 568.7 146.7 533.2 157.5C497.7 168.3 462.3 191.7 426.8 201.5C391.3 211.3 355.7 207.7 320 194.2C284.3 180.7 248.7 157.3 213.2 145.7C177.7 134 142.3 134 106.8 136.7C71.3 139.3 35.7 144.7 17.8 147.3L0 150Z" fill="#585850"></path><path d="M0 460L17.8 461.8C35.7 463.7 71.3 467.3 106.8 463.7C142.3 460 177.7 449 213.2 443.5C248.7 438 284.3 438 320 441.7C355.7 445.3 391.3 452.7 426.8 453.7C462.3 454.7 497.7 449.3 533.2 451.2C568.7 453 604.3 462 640 463.8C675.7 465.7 711.3 460.3 746.8 459.3C782.3 458.3 817.7 461.7 853.2 462.5C888.7 463.3 924.3 461.7 942.2 460.8L960 460L960 377L942.2 374.3C924.3 371.7 888.7 366.3 853.2 363.7C817.7 361 782.3 361 746.8 358.3C711.3 355.7 675.7 350.3 640 350.3C604.3 350.3 568.7 355.7 533.2 360.2C497.7 364.7 462.3 368.3 426.8 363.8C391.3 359.3 355.7 346.7 320 336.7C284.3 326.7 248.7 319.3 213.2 319.3C177.7 319.3 142.3 326.7 106.8 336.7C71.3 346.7 35.7 359.3 17.8 365.7L0 372Z" fill="#45453e"></path><path d="M0 541L17.8 541C35.7 541 71.3 541 106.8 541C142.3 541 177.7 541 213.2 541C248.7 541 284.3 541 320 541C355.7 541 391.3 541 426.8 541C462.3 541 497.7 541 533.2 541C568.7 541 604.3 541 640 541C675.7 541 711.3 541 746.8 541C782.3 541 817.7 541 853.2 541C888.7 541 924.3 541 942.2 541L960 541L960 458L942.2 458.8C924.3 459.7 888.7 461.3 853.2 460.5C817.7 459.7 782.3 456.3 746.8 457.3C711.3 458.3 675.7 463.7 640 461.8C604.3 460 568.7 451 533.2 449.2C497.7 447.3 462.3 452.7 426.8 451.7C391.3 450.7 355.7 443.3 320 439.7C284.3 436 248.7 436 213.2 441.5C177.7 447 142.3 458 106.8 461.7C71.3 465.3 35.7 461.7 17.8 459.8L0 458Z" fill="#383832"></path></svg>